HIERARCHY
ROOT hip
{
	OFFSET 0.000000 0.000000 0.000000
	CHANNELS 6 Xposition Yposition Zposition Xrotation Zrotation Yrotation 
	JOINT abdomen
	{
		OFFSET 0.000000 3.422050 0.000000
		CHANNELS 3 Xrotation Zrotation Yrotation 
		JOINT chest
		{
			OFFSET 0.000000 8.486693 -0.684411
			CHANNELS 3 Xrotation Zrotation Yrotation 
			JOINT neck
			{
				OFFSET 0.000000 10.266162 -0.273764
				CHANNELS 3 Xrotation Zrotation Yrotation 
				JOINT head
				{
					OFFSET 0.000000 3.148285 0.000000
					CHANNELS 3 Xrotation Zrotation Yrotation 
					End Site
					{
						OFFSET 0.000000 3.148289 0.000000
					}
				}
			}
			JOINT lCollar
			{
				OFFSET 3.422053 6.707223 -0.821293
				CHANNELS 3 Yrotation Zrotation Xrotation 
				JOINT lShldr
				{
					OFFSET 3.285171 0.000000 0.000000
					CHANNELS 3 Zrotation Yrotation Xrotation 
					JOINT lForeArm
					{
						OFFSET 10.129278 0.000000 0.000000
						CHANNELS 3 Yrotation Zrotation Xrotation 
						JOINT lHand
						{
							OFFSET 8.486692 0.000000 0.000000
							CHANNELS 3 Zrotation Yrotation Xrotation 
							End Site
							{
								OFFSET 4.106464 0.000000 0.000000
							}
						}
					}
				}
			}
			JOINT rCollar
			{
				OFFSET -3.558935 6.707223 -0.821293
				CHANNELS 3 Yrotation Zrotation Xrotation 
				JOINT rShldr
				{
					OFFSET -3.148289 0.000000 0.000000
					CHANNELS 3 Zrotation Yrotation Xrotation 
					JOINT rForeArm
					{
						OFFSET -10.266159 0.000000 0.000000
						CHANNELS 3 Yrotation Zrotation Xrotation 
						JOINT rHand
						{
							OFFSET -8.349810 0.000000 0.000000
							CHANNELS 3 Zrotation Yrotation Xrotation 
							End Site
							{
								OFFSET -4.106464 0.000000 0.000000
							}
						}
					}
				}
			}
		}
	}
	JOINT lThigh
	{
		OFFSET 5.338403 -1.642589 1.368821
		CHANNELS 3 Xrotation Zrotation Yrotation 
		JOINT lShin
		{
			OFFSET -2.053232 -20.121670 0.000000
			CHANNELS 3 Xrotation Zrotation Yrotation 
			JOINT lFoot
			{
				OFFSET 0.000000 -19.300380 -1.231939
				CHANNELS 3 Xrotation Yrotation Zrotation 
				End Site
				{
					OFFSET 0.000000 -2.463878 4.653993
				}
			}
		}
	}
	JOINT rThigh
	{
		OFFSET -5.338403 -1.642589 1.368821
		CHANNELS 3 Xrotation Zrotation Yrotation 
		JOINT rShin
		{
			OFFSET 2.053232 -20.121670 0.000000
			CHANNELS 3 Xrotation Zrotation Yrotation 
			JOINT rFoot
			{
				OFFSET 0.000000 -19.300380 -1.231939
				CHANNELS 3 Xrotation Yrotation Zrotation 
				End Site
				{
					OFFSET 0.000000 -2.463878 4.653993
				}
			}
		}
	}
}
MOTION
Frames: 8
Frame Time: 0.142781
-10.041496 6.915924 2.448048 -90.001755 -0.005246 -90.001755 2.888457 2.539534 1.902883 -0.513274 -2.184726 -0.138870 21.819265 4.149394 27.002100 0.000000 0.000000 0.000000 -33.897179 4.136728 -1.005149 -83.100349 -21.602350 27.694618 -103.267487 7.613807 -6.474262 0.998433 0.000000 0.000000 51.280548 39.494846 -23.706907 48.715595 -11.378862 3.980285 79.438011 -54.763363 35.662071 6.997686 -0.002259 -21.200531 -44.462135 -10.772191 7.889499 48.214943 -1.961502 -0.090370 40.309349 3.775821 8.104119 -28.126991 -5.470768 -0.164252 40.359146 2.328224 0.138424 42.078896 -3.499094 -7.657232 
-10.041496 6.915924 2.448048 -90.001755 -0.005246 -90.001755 2.888457 2.539534 1.902883 -0.513274 -2.184726 -0.138870 22.001337 4.164361 27.002583 0.000000 0.000000 0.000000 -33.897179 4.136728 -1.005149 -83.100349 -21.602350 27.694618 -102.771805 7.725640 -6.463957 0.998433 0.000000 0.000000 51.280548 39.494846 -23.706907 48.715595 -11.378862 3.980285 79.438011 -54.763363 35.662071 6.997686 -0.002259 -21.200531 -44.462135 -10.772191 7.889499 48.214943 -1.961502 -0.090370 40.309349 3.775821 8.104119 -28.126991 -5.470768 -0.164252 40.359146 2.328224 0.138424 42.078896 -3.499094 -7.657232 
-10.041496 6.915924 2.448048 -90.001755 -0.005246 -90.001755 2.888457 2.539534 1.902883 -0.513274 -2.184726 -0.138870 22.183437 4.179327 27.003120 0.000000 0.000000 0.000000 -33.897179 4.136728 -1.005149 -83.100349 -21.602350 27.694618 -102.275795 7.837610 -6.454621 0.998433 0.000000 0.000000 51.280548 39.494846 -23.706907 48.715595 -11.378862 3.980285 79.438011 -54.763363 35.662071 6.997686 -0.002259 -21.200531 -44.462135 -10.772191 7.889499 48.214943 -1.961502 -0.090370 40.309349 3.775821 8.104119 -28.126991 -5.470768 -0.164252 40.359146 2.328224 0.138424 42.078896 -3.499094 -7.657232 
-10.041496 6.915924 2.448048 -90.001755 -0.005246 -90.001755 2.888457 2.539534 1.902883 -0.513274 -2.184726 -0.138870 22.365551 4.194293 27.003702 0.000000 0.000000 0.000000 -33.897175 4.136728 -1.005149 -83.100349 -21.602350 27.694618 -101.779427 7.949698 -6.446257 0.998433 0.000000 0.000000 51.280548 39.494846 -23.706907 48.715595 -11.378862 3.980285 79.438011 -54.763363 35.662071 6.997686 -0.002259 -21.200531 -44.462135 -10.772191 7.889499 48.214943 -1.961502 -0.090370 40.309349 3.775821 8.104119 -28.126991 -5.470768 -0.164252 40.359146 2.328224 0.138424 42.078896 -3.499094 -7.657232 
-10.041496 6.915924 2.448048 -90.001755 -0.005246 -90.001755 2.888457 2.539534 1.902883 -0.513274 -2.184726 -0.138870 22.547684 4.209258 27.004330 0.000000 0.000000 0.000000 -33.897179 4.136728 -1.005149 -83.100349 -21.602350 27.694618 -101.282784 8.061899 -6.438873 0.998433 0.000000 0.000000 51.280548 39.494846 -23.706907 48.715595 -11.378862 3.980285 79.438011 -54.763363 35.662071 6.997686 -0.002259 -21.200531 -44.462135 -10.772191 7.889499 48.214943 -1.961502 -0.090370 40.309349 3.775821 8.104119 -28.126991 -5.470768 -0.164252 40.359146 2.328224 0.138424 42.078896 -3.499094 -7.657232 
-10.041496 6.915924 2.448048 -90.001755 -0.005246 -90.001755 2.888457 2.539534 1.902883 -0.513274 -2.184726 -0.138870 22.729839 4.224221 27.005009 0.000000 0.000000 0.000000 -33.897179 4.136728 -1.005149 -83.100349 -21.602350 27.694618 -100.785835 8.174197 -6.432464 0.998433 0.000000 0.000000 51.280548 39.494846 -23.706907 48.715595 -11.378862 3.980285 79.438011 -54.763363 35.662071 6.997686 -0.002259 -21.200531 -44.462139 -10.772192 7.889499 48.214943 -1.961502 -0.090370 40.309349 3.775821 8.104119 -28.126989 -5.470768 -0.164252 40.359146 2.328224 0.138424 42.078896 -3.499094 -7.657231 
-10.041496 6.915924 2.448048 -90.001755 -0.005246 -90.001755 2.888457 2.539534 1.902883 -0.513274 -2.184726 -0.138870 22.912008 4.239182 27.005737 0.000000 0.000000 0.000000 -33.897179 4.136728 -1.005149 -83.100349 -21.602350 27.694618 -100.288620 8.286579 -6.427038 0.998433 0.000000 0.000000 51.280548 39.494846 -23.706907 48.715591 -11.378861 3.980284 79.438011 -54.763363 35.662071 6.997686 -0.002259 -21.200531 -44.462139 -10.772192 7.889499 48.214943 -1.961502 -0.090370 40.309349 3.775821 8.104119 -28.126989 -5.470768 -0.164252 40.359146 2.328224 0.138424 42.078896 -3.499094 -7.657232 
-10.041496 6.915924 2.448048 -90.001755 -0.005246 -90.001755 2.888457 2.539534 1.902883 -0.513274 -2.184726 -0.138870 23.094196 4.254145 27.006510 0.000000 0.000000 0.000000 -33.897179 4.136728 -1.005149 -83.100349 -21.602350 27.694618 -99.791138 8.399034 -6.422595 0.998433 0.000000 0.000000 51.280548 39.494846 -23.706907 48.715595 -11.378862 3.980285 79.438011 -54.763363 35.662071 6.997686 -0.002259 -21.200531 -44.462139 -10.772192 7.889499 48.214943 -1.961502 -0.090370 40.309349 3.775821 8.104119 -28.126995 -5.470768 -0.164252 40.359146 2.328224 0.138424 42.078896 -3.499094 -7.657232 
